<svg width="40" height="40" viewBox="0 0 40 40" fill="none" xmlns="http://www.w3.org/2000/svg">
<path d="M40 0H0V40H40V0Z" fill="#231E1B"/>
<path fill-rule="evenodd" clip-rule="evenodd" d="M19.9694 10.24C14.4648 10.24 10 14.7048 10 20.2094C10 24.6131 12.8746 28.344 16.789 29.6895C17.2783 29.7507 17.4618 29.4449 17.4618 29.2003C17.4618 28.9556 17.4618 28.344 17.4618 27.4877C14.7095 28.0993 14.0979 26.1421 14.0979 26.1421C13.6697 24.9801 12.9969 24.6743 12.9969 24.6743C12.0795 24.0626 13.0581 24.0626 13.0581 24.0626C14.0367 24.1238 14.5872 25.1024 14.5872 25.1024C15.5046 26.6314 16.9113 26.2033 17.4618 25.9587C17.5229 25.2859 17.8287 24.8577 18.0734 24.6131C15.8716 24.3684 13.5474 23.5122 13.5474 19.659C13.5474 18.558 13.9144 17.7018 14.5872 16.9678C14.526 16.7843 14.159 15.7446 14.7095 14.399C14.7095 14.399 15.5657 14.1544 17.4618 15.4388C18.2569 15.1941 19.1131 15.133 19.9694 15.133C20.8257 15.133 21.682 15.2553 22.4771 15.4388C24.3731 14.1544 25.2294 14.399 25.2294 14.399C25.7798 15.7446 25.4128 16.7843 25.3517 17.029C25.9633 17.7018 26.3914 18.6192 26.3914 19.7201C26.3914 23.5733 24.0673 24.3684 21.8654 24.6131C22.2324 24.9189 22.5382 25.5305 22.5382 26.448C22.5382 27.7935 22.5382 28.8333 22.5382 29.2003C22.5382 29.4449 22.7217 29.7507 23.211 29.6895C27.1865 28.344 30 24.6131 30 20.2094C29.9388 14.7048 25.474 10.24 19.9694 10.24Z" fill="white"/>
</svg>
